<svg version="1.1" viewBox="0 0 290 454" xml:space="preserve" xmlns="http://www.w3.org/2000/svg"><path d="m124 452q-6.4-2.7-6.4-13.3c0-6.8 1.7-9.8 6.6-11.9 7.1-3 16.2-.7 19 4.7a21 21 0 01-.6 16.5c-3.2 5-11.8 7-18.6 4m-47.5-11.4c-2.7-2.4-3.2-3.7-3.6-8.3q-1.3-15.7 13.8-15.9 9.5 0 12.4 7.3c2.4 6 1.3 12.1-3 16.4-3 3-3.7 3.3-9.8 3.3-5.9 0-7-.3-9.8-2.8m91 1.3c-3.4-1.8-5.4-6.8-5.2-12.8q.6-12.6 14.6-12.7c8.8 0 13.5 6 12.5 16.3-.4 4.1-1.1 5.6-3.7 8-2.7 2.4-3.9 2.7-9.3 2.7-3.5 0-7.4-.7-8.9-1.5m-129-26.3c-2.8-2.5-3.3-3.7-3.6-8.9q-1-11 6.3-13.9c7.2-3 16.6-.8 19.4 4.6 1.6 3 1.6 11.2 0 15-1.7 4.2-5.6 6-12.9 6-5.2 0-6.5-.4-9.2-2.8m166-.6c-3-3-3.4-3.9-3.3-9.2 0-7.3 1.5-10.4 6-12.6 7.2-3.7 17.7-1.1 20 4.8a24 24 0 01-.7 15.4c-2.3 3.8-5.3 5-12.5 5-5.6 0-6.3-.3-9.5-3.4m-188-36.3c-4.8-2.5-7.2-7.4-6.6-13.7.7-6 2.8-9.3 7.2-11.2 7-2.9 15-.8 18.5 4.8 2.7 4.3 2.3 13.6-.6 17a16 16 0 01-18.5 3m218 .8c-8.3-3.5-10-17.5-3-24.1 1.8-1.6 4-2.4 7.8-2.7 6.6-.5 11.6 1.9 14 6.7 3.6 7.2 1.1 16-5.3 19.3-3.6 1.8-10 2.2-13.5.8m-227-45.6c-8.2-4-8.5-19.7-.5-23.8 1.8-1 5.5-1.6 9-1.6 5.3 0 6.3.4 9 3 6.1 6.2 4.8 19-2.3 22.4-4.3 2-11.1 2-15.2 0m236 .2c-8.2-3.6-9.5-17-2.3-23 2.6-2.2 4-2.6 9.3-2.6q6.2 0 8.4 1.6c7.2 5 6.8 20-.6 23.9a20 20 0 01-14.8 0m-225-44c-5-1.8-7.3-4.8-8.1-10.3-.9-5.4.9-10.6 4.7-13.7 2.4-2 4-2.6 8.5-2.6q10.1 0 13 6.6c2.7 6.6.9 15.7-3.8 18.8a18 18 0 01-14.3 1.2m217 .1q-7.4-2.2-8.3-11.4-1.3-15.1 14.3-15.3c5.3 0 9.7 2.2 11.6 5.8 2 3.7 1.7 13.3-.5 16.6-3 4.5-10.4 6.4-17 4.3m-194-39.3c-4.4-2.2-6-5.4-6-11.8 0-5.8 2.7-11 6.5-12.5 1.4-.5 5-1 8.1-1 5 0 5.9.4 9 3.4 3.3 3.4 3.9 5.4 3.3 13.1-.2 4.2-1.6 6.3-5.3 8.6a18 18 0 01-15.6.2m166 0c-4.5-2.3-6-5.4-6-12.6 0-5.4.2-6.2 3.3-9.3 3.2-3.2 3.9-3.4 10-3.4 5.8 0 7 .4 9.8 2.9 2.8 2.4 3.2 3.6 3.6 8.7.2 3.3 0 7.2-.7 8.7-2.3 6-12.7 8.7-20 5m-126-24.3q-7.5-2.2-8.2-11.3c-.5-6 1.4-11.3 4.8-13.5 6-3.8 17-2 20.6 3.4 2.2 3.3 2.4 12 .4 15.9-2.6 4.8-11.2 7.5-17.6 5.5m89-.4c-4.5-1.7-6.1-3.5-7.5-8.7-1.4-5 .2-11.8 3.5-14.6 6-5.2 18.6-3.7 21.8 2.7 2 4 2.3 11.5.5 15-3 5.7-11.1 8.2-18.3 5.6m-45-9-4.2-1.6c-.1 0-.9-1.3-1.7-3-1-1.6-1.6-5.5-1.6-9 0-5.1.4-6.4 2.9-9.2 2.6-2.8 3.5-3.2 9.3-3.5 7.2-.4 12.2 1.8 13.9 6.3a25 25 0 01-.3 14.3c-3 5.8-11.1 8.3-18.3 5.6m56.3-122c-9.7-19.4-16-30.7-25.4-45.1-3.6-5.5-6.3-10-6.1-10.2a453 453 0 0138-15.7c4.2 2.4 42.9 69.5 41.1 71.2-.6.6-26.7 12-38 16.7-.6.2-4.8-7-9.6-16.9m63.3-19c-8.4-16-18.4-32.5-28.2-46.5-4.3-6.2-7.9-11.7-7.9-12.1s2.2-1.8 4.8-2.9l19-8.5 14-6.5 10.6 15.7a953 953 0 0132.4 51.8c1.4 2.2 1.1 2.4-13.4 9.4-8.2 4-17.1 8.2-19.9 9.4l-5 2.3z" fill="currentColor"/></svg>
