<svg version="1.1" viewBox="0 0 290 450" xml:space="preserve" xmlns="http://www.w3.org/2000/svg"><path d="m124 448c-4.7-2-6.8-5.9-6.8-12.5 0-9.1 5-14 14-14 8.3 0 13.5 5.4 13.5 14.1 0 10.6-10.5 16.9-20.7 12.4m-46-9.6c-5-2.6-7.1-13.5-3.8-20 4.1-8 20.2-7.9 24.5.2.7 1.3 1 4.8.8 8.5-.4 5.3-.9 6.9-3.1 9.1-2.3 2.3-3.7 2.8-9.5 3-3.7.1-7.7-.2-8.8-.8m89.7-.2c-3.1-1.5-6-7.1-6-11.5 0-4.1 2-9.2 4.8-11.6s10.7-3.2 15.6-1.6c8.5 2.8 10.1 19 2.4 24.3-2.8 2-13.1 2.2-16.8.4m-128-25.1c-3.5-2-5-5.5-5-12.1q-.1-13.5 13-13.5 14.1-.2 14 14.5c0 5.1-.4 6-3.4 9-3.2 3.2-3.9 3.5-9.8 3.4-3.5 0-7.4-.6-8.7-1.3m166 0c-7.8-4.3-8-18.2-.3-23.3 2.4-1.7 4.8-2.3 8.5-2.3q14.7.1 13.3 16.3c-.4 4-1 5.6-3.6 7.9-2.8 2.4-4 2.8-9.4 2.7-3.4 0-7.2-.6-8.5-1.2m-190-38.1c-9.4-4.1-9.6-20.1-.2-24.8 6.5-3.2 15.1-1.4 18.6 3.9a20 20 0 010 16.8c-3.3 5.1-11.7 7-18.4 4.1m216-.1c-8.5-4.3-8.3-21.4.4-25 7.2-3 16.6-.6 19.3 5 2 4.3 1.7 12.6-.5 16-3.4 5.3-12.6 7.2-19.1 4m-226-44.8q-6.8-3-6-14c.4-5.1.8-6.3 3.6-8.8 2.8-2.5 4-2.8 9.8-2.8 6.1 0 6.8.2 10 3.4 3.1 3.2 3.4 3.8 3.4 10 0 5.8-.4 7-2.9 9.7-2.5 2.8-3.6 3.3-8.7 3.6-3.7.2-7.1-.2-9.1-1.1m236 .1c-8.7-4.4-9.3-20-1-24.3 4-2 13.9-1.9 16.9.2 7.2 5.1 6.2 20.7-1.6 24a21 21 0 01-14.3.1m-224-44q-7.4-2.3-8.4-11-1.5-15.5 14-15.7c4.6 0 6.2.5 8.6 2.5a15 15 0 014.7 14q-1.3 8.4-8.3 10.4c-4.5 1.3-5.6 1.3-10.6-.2m217 .3q-7.7-2.2-8.2-11.9c-.8-10.4 3.8-15.1 14.7-15.1 10.4 0 15.3 9.5 10.8 21.3-1.8 4.8-10.7 7.7-17.3 5.7m-194-40c-4.6-2.7-5.6-5.3-5.1-12.7.3-5.3.8-6.8 3-9 2.3-2.4 3.8-2.8 9.6-3.1 6.5-.4 7.1-.3 10.2 2.5 3 2.6 3.4 3.7 3.8 9q.9 11-6.4 13.9c-4.8 2-11.3 1.7-15.1-.6m166-.3c-7.5-5-7.4-18.7 0-23 3.8-2.3 13.8-2.3 17 0 7 4.9 6.5 20-.8 23.7-4.6 2.4-12.2 2-16.2-.7m-126-24.2c-2-.8-3.9-1.6-4-1.8a19 19 0 01-2-19c3.8-7.4 19-7.8 23.4-.5 2.5 4 2.6 12.7.3 16.7-2.9 4.9-11 7-17.7 4.6m90 0c-2.2-.6-4.8-2.3-5.9-3.8-4.3-5.7-2.9-16.7 2.7-20.4 6-4 16.6-2.4 20.1 3 3.9 6 2.5 16.6-2.7 20a19 19 0 01-14.2 1.3m-45.5-9c-6.3-2.3-9.3-9.6-7.2-17.4q2.6-9.2 12.7-9.2 10.3 0 13 6.5c2.8 6.7 1 15.8-3.9 18.9a20 20 0 01-14.6 1.3m93.6-87.6a63.3 63.3 0 01-18.6-119c18-9 37.5-9 55.9-.1 9.5 4.6 23 17.6 27.8 26.9 9 17.4 9.5 39.6 1.1 56.5a63 63 0 01-54 36.1c-4 .3-9.6.2-12.2-.3m22.7-35.5c6-2.9 11.4-8.4 14.7-15.4 3-6.2 3-16.7-.1-23.9a35 35 0 00-18.2-16.8c-18-6-37.9 6.8-39.6 25.6-1 11 3.4 21 12.3 27.8a29 29 0 0031 2.7" fill="currentColor"/></svg>
