<?xml version="1.0" encoding="UTF-8" standalone="no"?>
<svg version="1.1" viewBox="0 0 40 40" xml:space="preserve" id="svg1" sodipodi:docname="youon.svg" width="40" height="40" inkscape:version="1.4.4 (dcaf3e7d9e, 2026-05-05)" xmlns:inkscape="http://www.inkscape.org/namespaces/inkscape" xmlns:sodipodi="http://sodipodi.sourceforge.net/DTD/sodipodi-0.dtd" xmlns="http://www.w3.org/2000/svg" xmlns:svg="http://www.w3.org/2000/svg"><defs id="defs1" /><sodipodi:namedview id="namedview1" pagecolor="#ffffff" bordercolor="#000000" borderopacity="0.25" inkscape:showpageshadow="2" inkscape:pageopacity="0.0" inkscape:pagecheckerboard="0" inkscape:deskcolor="#d1d1d1" inkscape:zoom="19.7562" inkscape:cx="17.311" inkscape:cy="19.4369" inkscape:window-width="2560" inkscape:window-height="1371" inkscape:window-x="0" inkscape:window-y="0" inkscape:window-maximized="1" inkscape:current-layer="svg1" /><path d="m 8.93004,1.61531 0.0211,2.65088 c 2.59376,0.24853 6.36996,0.24853 8.90156,0 V 1.59461 C 15.6325,1.86385 11.4825,1.96747 8.93039,1.61571 Z M 10.5901,10.4592 8.22461,10.2519 c -0.24898,1.0563 -0.37348,1.8639 -0.37348,2.6924 0,2.1124 1.72224,3.3964 5.29107,3.3964 2.3447,0 4.0253,-0.145 5.3741,-0.4144 l -0.062,-2.7957 c -1.8051,0.3936 -3.3406,0.5592 -5.1872,0.5592 -2.1165,0 -2.9258,-0.5592 -2.9258,-1.4911 0,-0.5385 0.083,-1.0354 0.249,-1.7395 z M 5.7347,0.22784 2.8298,0 C 2.80906,0.66269 2.70531,1.44969 2.62231,2.00887 2.39407,3.62419 1.77159,7.10338 1.77159,10.2313 c 0,2.8165 0.39424,5.343 0.80922,6.7513 l 2.38617,-0.145 c -0.0207,-0.2899 -0.0207,-0.6419 -0.0416,-0.8697 0,-0.2071 0.0622,-0.6628 0.1245,-0.9734 C 5.25739,13.8969 5.9421,11.6602 6.54383,9.92061 L 5.25745,8.90531 C 4.9462,9.60991 4.61421,10.3141 4.30297,11.0182 4.24067,10.604 4.21997,10.0861 4.21997,9.67201 4.21997,7.60045 4.94619,3.45859 5.23668,2.09168 5.31958,1.71894 5.58938,0.66269 5.73463,0.22784 Z M 30.7791,5.71588 32.6465,4.36981 C 32.1484,3.81063 30.9658,2.79578 30.3641,2.40233 l -1.8467,1.34619 c 0.7677,0.53837 1.6599,1.32539 2.2617,1.96736 z M 26.5462,4.01764 23.9526,5.0118 c 0.3941,0.45556 0.7676,1.05614 0.9959,1.44959 0.6432,1.07695 1.5562,3.06552 2.1994,4.63971 0.7678,1.9052 1.7637,4.7632 2.2618,6.8549 L 32.024,17.314 C 31.4431,15.4708 30.2395,11.9087 29.4512,10.0861 28.8493,8.63621 27.7704,6.37858 27.1687,5.23952 27.0235,4.94958 26.7537,4.41121 26.5462,4.01764 Z m -4.2121,4.94987 1.1827,2.50639 c 1.5769,-0.7042 7.5735,-4.03907 10.2294,-4.03907 1.3072,0 1.9297,0.68338 1.9297,1.38768 0,1.0774 -0.7055,1.78149 -2.1579,1.78149 -0.664,0 -1.5977,-0.2071 -2.3447,-0.5592 l -0.062,2.4024 c 0.6018,0.2278 1.7015,0.5178 2.5937,0.5178 3.1124,0 4.5233,-1.5947 4.5233,-4.16309 0,-1.80205 -1.3486,-3.6866 -4.378,-3.6866 -2.5108,0 -6.5983,2.09169 -9.6693,3.2929 -0.2697,0.103 -1.0581,0.3522 -1.8466,0.5593 z" id="text1" style="font-weight:bold;font-size:18.7068px;font-family:'Noto Sans CJK JP';-inkscape-font-specification:'Noto Sans CJK JP Bold';text-align:center;letter-spacing:0px;word-spacing:0px;text-anchor:middle;stroke-width:1.19593;stroke-linecap:round;stroke-linejoin:round;paint-order:markers fill stroke;stroke:none" aria-label="にゃ" /><path d="m 3.47763,24.0972 v 2.945 c 0.69055,-0.021 1.62482,-0.061 2.39661,-0.061 1.13737,0 7.33196,0 8.40846,0 0.7108,0 1.6654,0.041 2.2544,0.061 v -2.945 c -0.589,0.081 -1.4421,0.1218 -2.2544,0.1218 -1.1171,0 -6.70241,0 -8.40846,0 -0.71086,0 -1.64513,-0.04 -2.39661,-0.1218 z m -1.70606,9.952 v 3.1075 c 0.7718,-0.081 1.74668,-0.1422 2.5591,-0.1422 1.27953,0 10.37843,0 11.65803,0 0.589,0 1.5029,0.061 2.2341,0.1422 v -3.1075 c -0.6905,0.061 -1.5638,0.1219 -2.2341,0.1219 -1.2796,0 -10.3785,0 -11.65803,0 -0.81242,0 -1.767,-0.081 -2.5591,-0.1219 z m 26.70793,-9.0584 -2.7419,0.65 c 0.2235,0.4264 0.4468,0.9342 0.589,1.442 0.6499,2.1122 2.4981,9.3629 3.0059,11.1299 0.1625,0.5687 0.2844,1.2389 0.3656,1.7873 l 2.7418,-0.6905 c -0.1421,-0.4062 -0.4265,-1.2999 -0.528,-1.6654 -0.5078,-1.6857 -2.4169,-8.6726 -3.1075,-11.1097 -0.1218,-0.5281 -0.264,-1.0562 -0.3249,-1.5436 z m 9.7489,3.1481 -1.6452,-1.1577 c -0.264,0.1218 -0.6702,0.2437 -1.0154,0.325 -1.4421,0.325 -9.5662,1.8685 -10.6629,2.0309 -0.6703,0.122 -1.239,0.1828 -1.8686,0.2438 l 0.6296,2.4169 c 1.6655,-0.3655 9.9317,-2.092 10.9879,-2.2747 -0.5484,0.9952 -1.9499,2.7013 -3.0059,3.6356 l 2.2544,1.117 c 1.4217,-1.5029 3.4528,-4.5699 4.3261,-6.3368 z" id="text1-0" style="font-weight:bold;font-size:18.7068px;font-family:'Noto Sans CJK JP';-inkscape-font-specification:'Noto Sans CJK JP Bold';text-align:center;letter-spacing:0px;word-spacing:0px;text-anchor:middle;stroke-width:1.17174;stroke-linecap:round;stroke-linejoin:round;paint-order:markers fill stroke;stroke:none" aria-label="ニャ" /></svg>
