<svg
  width="500"
  height="500"
  version="1.1"
  viewBox="0 0 132 132"
  xmlns="http://www.w3.org/2000/svg"
>
  <style id="style1">
  #icon {
    fill: #c3368c;
  }

  @media (prefers-color-scheme: dark) {
    #icon {
      fill: #ffb3ee;
    }
  }
  </style>
  <g transform="translate(138 -130)" id="icon">
    <path
      d="m-109 184v8.35h28.7v-8.35zm-29.5 32.3v8.35h63v-8.35zm24.8-52.2v56.8h8.9v-56.8zm95.1-.966c-11.3 3.04-30.3 4.83-47 5.52.759 1.79 1.79 5.17 2 7.24 16.9-.551 36.8-2.28 51-5.93zm-46.4 19.6v7.93h54.6v-7.93zm-4.76 16.1v8.07h63.4v-8.07zm27.5-25.9v45.2c0 1.38-.621 1.86-2.21 1.86s-7.38.07-12.5-.138c1.24 2.14 2.83 5.86 3.38 8.21 7.04.07 12.1-.138 15.4-1.45 3.31-1.24 4.55-3.45 4.55-8.35v-45.3z"
      stroke-linecap="round"
      stroke-linejoin="round"
      stroke-width=".359"
      style="paint-order: markers fill stroke"
      aria-label="上手"
    />
  </g>
</svg>
